<svg width="250" height="192" fill="none" xmlns="http://www.w3.org/2000/svg">
  <path
    d="M189.371 25.573S164.9-1.237 126.158.045C87.416 1.327 54.37 27.305 27.048 47.63-.271 67.955-7.596 99.525 8.287 124.172c15.882 24.647 41.19 14.271 73.411 30.269 32.22 15.997 38.341 25.084 74.232 21.194 35.891-3.89 63.212-43.677 59.14-86.06-4.072-42.383-25.698-64.002-25.698-64.002Z"
    fill="#00E984" />
  <path opacity=".7"
    d="M189.371 25.573S164.9-1.237 126.158.045C87.416 1.327 54.37 27.305 27.048 47.63-.271 67.955-7.596 99.525 8.287 124.172c15.882 24.647 41.19 14.271 73.411 30.269 32.22 15.997 38.341 25.084 74.232 21.194 35.891-3.89 63.212-43.677 59.14-86.06-4.072-42.383-25.698-64.002-25.698-64.002Z"
    fill="#fff" />
  <path
    d="M129.337 191.147c66.64 0 120.663-2.948 120.663-6.583 0-3.635-54.023-6.583-120.663-6.583-66.64 0-120.662 2.948-120.662 6.583 0 3.635 54.022 6.583 120.662 6.583Z"
    fill="#00E984" />
  <path opacity=".3"
    d="M129.337 191.147c66.64 0 120.663-2.948 120.663-6.583 0-3.635-54.023-6.583-120.663-6.583-66.64 0-120.662 2.948-120.662 6.583 0 3.635 54.022 6.583 120.662 6.583Z"
    fill="#fff" />
  <path
    d="M200.646 85.345c-.037 0 .419-2.267.468-2.431.522-1.617 2.492-4.437 4.394-4.431a2.257 2.257 0 0 1 2.17 2.559c-.14 1.343-1.343 2.48-2.431 3.142-1.277.796-4.601 1.16-4.601 1.16Z"
    fill="#00E984" />
  <path
    d="M196.956 70.083c1.793.644 2.687 3.963 2.626 5.665 0 .145-.34 2.43-.371 2.43h-.036c.14.523.292 1.089.444 1.703.267 1.142.559 2.43.784 3.865.26 1.539.431 3.092.51 4.65a29.36 29.36 0 0 1-.176 5.227.155.155 0 0 0 0 .061c.237-.504.936-1.902 1.003-2.006.936-1.422 3.574-3.647 5.415-3.112a2.255 2.255 0 0 1 1.411 3.04c-.487 1.251-1.945 2.035-3.167 2.382-1.38.395-4.455-.073-4.699-.11a39.503 39.503 0 0 1-1.13 5.203 71.403 71.403 0 0 1-.924 2.991c.213-.432.413-.815.444-.869.936-1.423 3.574-3.647 5.415-3.118a2.25 2.25 0 0 1 1.41 3.039c-.486 1.258-1.945 2.036-3.166 2.388-1.222.353-3.872 0-4.565-.091-.128.377-.255.76-.389 1.137-.608 1.823-1.264 3.647-1.823 5.434-.201.607-.377 1.264-.553 1.896.194-.383.358-.705.389-.748.93-1.422 3.573-3.646 5.409-3.118a2.267 2.267 0 0 1 1.594 2.119c.005.316-.055.629-.178.92-.486 1.252-1.951 2.037-3.173 2.383-1.221.346-3.61.043-4.437-.073a41.505 41.505 0 0 0-.449 1.945c-.079.438-.183.857-.237 1.301-.055.443-.122.875-.183 1.3-.085.833-.182 1.696-.243 2.511a89.035 89.035 0 0 0-.121 1.647c.188-.608.607-1.86.638-1.963a8.822 8.822 0 0 1 2.917-3.319c.068-.152.151-.297.25-.432a2.253 2.253 0 0 1 3.312-.522c1.447 1.215 1.082 4.668.419 6.236-.036.091-.577 1.045-.923 1.641.261-.316.504-.608.778-.96.528-.645 1.075-1.277 1.659-1.958l.893-.966c.292-.334.645-.644.967-.966a45.355 45.355 0 0 1 2.401-2.146c-.572-.462-2.559-2.145-3.131-3.288-.571-1.143-.978-2.741-.382-3.945a2.263 2.263 0 0 1 1.374-1.223 2.254 2.254 0 0 1 1.829.208c1.61 1.009 1.775 4.443 1.355 6.078 0 .104-.462 1.252-.711 1.878.504-.413 1.003-.832 1.526-1.215 1.507-1.167 3.069-2.298 4.619-3.434l1.416-1.052c-.2-.164-2.607-2.109-3.252-3.385-.565-1.137-.978-2.742-.383-3.951a2.268 2.268 0 0 1 1.376-1.221 2.264 2.264 0 0 1 1.828.206c1.61 1.015 1.774 4.449 1.355 6.078-.03.127-.656 1.781-.839 2.194a75.529 75.529 0 0 0 3.039-2.364 39.376 39.376 0 0 0 3.769-3.513c-.091-.073-2.614-2.091-3.27-3.404-.572-1.137-.979-2.742-.383-3.945a2.246 2.246 0 0 1 2.306-1.314c.315.036.618.138.891.299 1.617 1.009 1.781 4.443 1.361 6.078-.03.103-.504 1.368-.747 1.963l.097.055a29.12 29.12 0 0 0 3.094-4.157c.504-.803.948-1.599 1.361-2.39-.51-.327-2.814-1.823-3.537-2.965-.723-1.143-1.271-2.614-.815-3.878a2.267 2.267 0 0 1 1.22-1.35 2.252 2.252 0 0 1 1.819-.012c1.721.827 2.255 4.225 2.018 5.908 0 .092-.243 1.01-.419 1.678.176-.359.371-.723.535-1.07a54.341 54.341 0 0 0 1.55-3.647c.243-.608.443-1.215.608-1.72-.335-.608-1.635-2.948-1.763-4.254-.128-1.307.079-2.912 1.07-3.824a2.26 2.26 0 0 1 1.722-.64 2.25 2.25 0 0 1 1.627.853c1.142 1.526.054 4.784-.93 6.175a70.259 70.259 0 0 1-1.654 1.824v-.037c-.17.517-.352 1.07-.571 1.666a48.62 48.62 0 0 1-1.471 3.647 40.755 40.755 0 0 1-2.145 4.157 29.487 29.487 0 0 1-3.039 4.255l-.043.049a45.148 45.148 0 0 1 1.939-1.119c1.568-.668 4.984-1.051 6.236.389a2.257 2.257 0 0 1 .159 2.649c-.17.267-.394.495-.657.67-1.1.778-2.754.608-3.963.237-1.368-.432-3.647-2.517-3.86-2.681a39.304 39.304 0 0 1-3.811 3.714 59.555 59.555 0 0 1-2.431 1.982c.419-.237.796-.45.851-.475 1.562-.668 4.978-1.051 6.23.389a2.252 2.252 0 0 1-.498 3.319c-1.095.778-2.748.608-3.957.237-1.21-.371-3.234-2.121-3.757-2.589l-.954.735a299.13 299.13 0 0 0-4.528 3.52c-.517.419-1.009.851-1.507 1.276.376-.213.686-.389.741-.407 1.562-.675 4.978-1.052 6.23.383a2.24 2.24 0 0 1 .163 2.651 2.248 2.248 0 0 1-.661.667c-1.1.778-2.748.608-3.957.243-1.21-.364-3.039-1.957-3.647-2.51-.492.456-.991.906-1.447 1.374-.309.322-.607.608-.911.954-.304.347-.608.657-.875.985-.529.644-1.082 1.313-1.587 1.957-.352.444-.681.875-1.009 1.307a71.076 71.076 0 0 1 1.617-1.283c1.44-.899 4.759-1.793 6.218-.565a2.266 2.266 0 0 1 .748 1.681 2.257 2.257 0 0 1-.748 1.68c-.967.93-2.62 1.033-3.872.839-1.386-.219-3.89-1.823-4.2-2.054a97.251 97.251 0 0 0-1.556 2.096 115.368 115.368 0 0 0-3.896 5.744l-.091.14-1.167-.565c.061-.091.121-.176.182-.274.942-1.41 2.316-3.403 4.066-5.719a144.5 144.5 0 0 1 1.781-2.292 24.287 24.287 0 0 1-1.823-2.236c-1.343.522-4.133.547-4.492.547-.054.899-.103 1.774-.14 2.601-.121 2.875-.109 5.27-.079 6.941v.201l-1.282-.608c0-1.659.067-3.914.237-6.57.055-.918.134-1.897.225-2.894-.359-.091-3.258-.838-4.352-1.714-.991-.79-2.036-2.078-2-3.422a2.249 2.249 0 0 1 2.48-2.261c1.89.243 3.471 3.295 3.787 4.966 0 .097.097 1.216.133 1.884.043-.413.073-.808.116-1.215.085-.833.194-1.666.31-2.559.067-.426.14-.857.207-1.295.066-.437.182-.887.273-1.337a46.14 46.14 0 0 1 .821-3.112c-.73-.079-3.313-.383-4.425-1.015-1.112-.632-2.328-1.75-2.492-3.082a2.243 2.243 0 0 1 .468-1.779 2.255 2.255 0 0 1 1.641-.834c1.902-.049 3.932 2.729 4.492 4.334.036.103.31 1.3.443 1.963.195-.608.377-1.252.608-1.872.608-1.824 1.295-3.611 1.963-5.416.207-.553.402-1.106.608-1.653-.261 0-3.343-.322-4.583-1.033-1.1-.608-2.328-1.75-2.498-3.082a2.267 2.267 0 0 1 .473-1.776 2.273 2.273 0 0 1 1.636-.838c1.909-.048 3.939 2.73 4.498 4.334.043.122.432 1.824.511 2.292.437-1.216.869-2.432 1.215-3.647.514-1.641.92-3.314 1.216-5.009-.122 0-3.343-.304-4.607-1.033-1.107-.608-2.334-1.75-2.498-3.082a2.25 2.25 0 0 1 .473-1.776 2.262 2.262 0 0 1 1.636-.837c1.902-.043 3.932 2.729 4.491 4.334.037.109.335 1.422.462 2.048h.11c.251-1.712.348-3.443.291-5.173 0-.954-.091-1.86-.182-2.747-.608 0-3.367 0-4.583-.523-1.215-.522-2.51-1.483-2.826-2.79a2.262 2.262 0 0 1 .279-1.82 2.255 2.255 0 0 1 1.544-1.006c1.891-.255 4.212 2.28 4.948 3.817.036.085.352.979.565 1.63-.042-.396-.085-.81-.14-1.186-.188-1.428-.455-2.73-.699-3.872a74.84 74.84 0 0 0-.425-1.78c-.608-.305-2.99-1.557-3.811-2.572-.821-1.015-1.538-2.468-1.216-3.774a2.267 2.267 0 0 1 1.109-1.483 2.259 2.259 0 0 1 1.845-.152Z"
    fill="#00E984" />
  <path
    d="M231.407 99.458c-1.489-.06-4.467-1.586-4.467-1.592 0-.006 1.598-1.653 1.714-1.745 1.331-1.063 4.528-2.328 6.114-1.276a2.258 2.258 0 0 1 .94 1.58 2.264 2.264 0 0 1-.545 1.757c-.851 1.02-2.486 1.325-3.756 1.276Z"
    fill="#00E984" />
  <g opacity=".5" fill="#fff">
    <path
      d="M200.646 85.345c-.037 0 .419-2.267.468-2.431.522-1.617 2.492-4.437 4.394-4.431a2.257 2.257 0 0 1 2.17 2.558c-.14 1.344-1.343 2.48-2.431 3.143-1.277.796-4.601 1.16-4.601 1.16Z" />
    <path
      d="M196.956 70.083c1.793.644 2.687 3.963 2.626 5.665 0 .145-.34 2.43-.371 2.43h-.036c.14.523.292 1.089.444 1.703.267 1.142.559 2.43.784 3.865.26 1.539.431 3.092.51 4.65a29.36 29.36 0 0 1-.176 5.227.155.155 0 0 0 0 .061c.237-.504.936-1.902 1.003-2.006.936-1.422 3.574-3.647 5.415-3.112a2.255 2.255 0 0 1 1.411 3.04c-.487 1.251-1.945 2.035-3.167 2.382-1.38.395-4.455-.073-4.699-.11a39.503 39.503 0 0 1-1.13 5.203 71.403 71.403 0 0 1-.924 2.991c.213-.432.413-.815.444-.869.936-1.423 3.574-3.647 5.415-3.118a2.25 2.25 0 0 1 1.41 3.039c-.486 1.258-1.945 2.036-3.166 2.388-1.222.353-3.872 0-4.565-.091-.128.377-.255.76-.389 1.137-.608 1.823-1.264 3.647-1.823 5.434-.201.607-.377 1.264-.553 1.896.194-.383.358-.705.389-.748.93-1.422 3.573-3.646 5.409-3.118a2.267 2.267 0 0 1 1.594 2.119c.005.316-.055.629-.178.92-.486 1.252-1.951 2.037-3.173 2.383-1.221.346-3.61.043-4.437-.073a41.505 41.505 0 0 0-.449 1.945c-.079.438-.183.857-.237 1.301-.055.443-.122.875-.183 1.3-.085.833-.182 1.696-.243 2.511a89.035 89.035 0 0 0-.121 1.647c.188-.608.607-1.86.638-1.963a8.822 8.822 0 0 1 2.917-3.319c.068-.152.151-.297.25-.432a2.253 2.253 0 0 1 3.312-.522c1.447 1.215 1.082 4.668.419 6.236-.036.091-.577 1.045-.923 1.641.261-.316.504-.608.778-.96.528-.645 1.075-1.277 1.659-1.958l.893-.966c.292-.334.645-.644.967-.966a45.355 45.355 0 0 1 2.401-2.146c-.572-.462-2.559-2.145-3.131-3.288-.571-1.143-.978-2.741-.382-3.945a2.263 2.263 0 0 1 1.374-1.223 2.254 2.254 0 0 1 1.829.208c1.61 1.009 1.775 4.443 1.355 6.078 0 .104-.462 1.252-.711 1.878.504-.413 1.003-.832 1.526-1.215 1.507-1.167 3.069-2.298 4.619-3.434l1.416-1.052c-.2-.164-2.607-2.109-3.252-3.385-.565-1.137-.978-2.742-.383-3.951a2.268 2.268 0 0 1 1.376-1.221 2.264 2.264 0 0 1 1.828.206c1.61 1.015 1.774 4.449 1.355 6.078-.03.127-.656 1.781-.839 2.194a75.529 75.529 0 0 0 3.039-2.364 39.376 39.376 0 0 0 3.769-3.513c-.091-.073-2.614-2.091-3.27-3.404-.572-1.137-.979-2.742-.383-3.945a2.246 2.246 0 0 1 2.306-1.314c.315.036.618.138.891.299 1.617 1.009 1.781 4.443 1.361 6.078-.03.103-.504 1.368-.747 1.963l.097.055a29.12 29.12 0 0 0 3.094-4.157c.504-.803.948-1.599 1.361-2.39-.51-.327-2.814-1.823-3.537-2.965-.723-1.143-1.271-2.614-.815-3.878a2.267 2.267 0 0 1 1.22-1.35 2.252 2.252 0 0 1 1.819-.012c1.721.827 2.255 4.225 2.018 5.908 0 .092-.243 1.01-.419 1.678.176-.359.371-.723.535-1.07a54.341 54.341 0 0 0 1.55-3.647c.243-.608.443-1.215.608-1.72-.335-.608-1.635-2.948-1.763-4.254-.128-1.307.079-2.912 1.07-3.824a2.26 2.26 0 0 1 1.722-.64 2.25 2.25 0 0 1 1.627.853c1.142 1.526.054 4.784-.93 6.175a70.259 70.259 0 0 1-1.654 1.824v-.037c-.17.517-.352 1.07-.571 1.666a48.62 48.62 0 0 1-1.471 3.647 40.755 40.755 0 0 1-2.145 4.157 29.487 29.487 0 0 1-3.039 4.255l-.043.049a45.148 45.148 0 0 1 1.939-1.119c1.568-.668 4.984-1.051 6.236.389a2.257 2.257 0 0 1 .159 2.649c-.17.267-.394.495-.657.67-1.1.778-2.754.608-3.963.237-1.368-.432-3.647-2.517-3.86-2.681a39.304 39.304 0 0 1-3.811 3.714 59.555 59.555 0 0 1-2.431 1.982c.419-.237.796-.45.851-.475 1.562-.668 4.978-1.051 6.23.389a2.252 2.252 0 0 1-.498 3.319c-1.095.778-2.748.608-3.957.237-1.21-.371-3.234-2.121-3.757-2.589l-.954.735a299.13 299.13 0 0 0-4.528 3.52c-.517.419-1.009.851-1.507 1.276.376-.213.686-.389.741-.407 1.562-.675 4.978-1.052 6.23.383a2.24 2.24 0 0 1 .163 2.651 2.248 2.248 0 0 1-.661.667c-1.1.778-2.748.608-3.957.243-1.21-.364-3.039-1.957-3.647-2.51-.492.456-.991.906-1.447 1.374-.309.322-.607.608-.911.954-.304.347-.608.657-.875.985-.529.644-1.082 1.313-1.587 1.957-.352.444-.681.875-1.009 1.307a71.076 71.076 0 0 1 1.617-1.283c1.44-.899 4.759-1.793 6.218-.565a2.266 2.266 0 0 1 .748 1.681 2.257 2.257 0 0 1-.748 1.68c-.967.93-2.62 1.033-3.872.839-1.386-.219-3.89-1.823-4.2-2.054a97.251 97.251 0 0 0-1.556 2.096 115.368 115.368 0 0 0-3.896 5.744l-.091.14-1.167-.565c.061-.091.121-.176.182-.274.942-1.41 2.316-3.403 4.066-5.719a144.5 144.5 0 0 1 1.781-2.292 24.287 24.287 0 0 1-1.823-2.236c-1.343.522-4.133.547-4.492.547-.054.899-.103 1.774-.14 2.601-.121 2.875-.109 5.27-.079 6.941v.201l-1.282-.608c0-1.659.067-3.914.237-6.57.055-.918.134-1.897.225-2.894-.359-.091-3.258-.838-4.352-1.714-.991-.79-2.036-2.078-2-3.422a2.249 2.249 0 0 1 2.48-2.261c1.89.243 3.471 3.295 3.787 4.966 0 .097.097 1.216.133 1.884.043-.413.073-.808.116-1.215.085-.833.194-1.666.31-2.559.067-.426.14-.857.207-1.295.066-.437.182-.887.273-1.337a46.14 46.14 0 0 1 .821-3.112c-.73-.079-3.313-.383-4.425-1.015-1.112-.632-2.328-1.75-2.492-3.082a2.243 2.243 0 0 1 .468-1.779 2.255 2.255 0 0 1 1.641-.834c1.902-.049 3.932 2.729 4.492 4.334.036.103.31 1.3.443 1.963.195-.608.377-1.252.608-1.872.608-1.824 1.295-3.611 1.963-5.416.207-.553.402-1.106.608-1.653-.261 0-3.343-.322-4.583-1.033-1.1-.608-2.328-1.75-2.498-3.082a2.267 2.267 0 0 1 .473-1.776 2.273 2.273 0 0 1 1.636-.838c1.909-.048 3.939 2.73 4.498 4.334.043.122.432 1.824.511 2.292.437-1.216.869-2.432 1.215-3.647.514-1.641.92-3.314 1.216-5.009-.122 0-3.343-.304-4.607-1.033-1.107-.608-2.334-1.75-2.498-3.082a2.25 2.25 0 0 1 .473-1.776 2.262 2.262 0 0 1 1.636-.837c1.902-.043 3.932 2.729 4.491 4.334.037.109.335 1.422.462 2.048h.11c.251-1.712.348-3.443.291-5.173 0-.954-.091-1.86-.182-2.747-.608 0-3.367 0-4.583-.523-1.215-.522-2.51-1.483-2.826-2.79a2.262 2.262 0 0 1 .279-1.82 2.255 2.255 0 0 1 1.544-1.006c1.891-.255 4.212 2.28 4.948 3.817.036.085.352.979.565 1.63-.042-.396-.085-.81-.14-1.186-.188-1.428-.455-2.73-.699-3.872a74.84 74.84 0 0 0-.425-1.78c-.608-.305-2.99-1.557-3.811-2.572-.821-1.015-1.538-2.468-1.216-3.774a2.267 2.267 0 0 1 1.109-1.483 2.259 2.259 0 0 1 1.845-.152Z" />
    <path
      d="M231.407 99.458c-1.489-.06-4.467-1.586-4.467-1.592 0-.006 1.598-1.653 1.714-1.745 1.331-1.063 4.528-2.328 6.114-1.276a2.258 2.258 0 0 1 .855 2.517 2.262 2.262 0 0 1-.46.82c-.851 1.02-2.486 1.325-3.756 1.276Z" />
  </g>
  <path
    d="M214.018 136.754s-9.039-21.79-14.096-20.842c-5.057.948 8.662 34.73 8.662 34.73s-15.901-29.995-26.744-29.995 3.975 33.156 17.706 44.206c0 0-21.681-23.365-34.33-18.314-12.648 5.051 25.297 28.732 25.297 28.732s-22.045-6.948-19.516-1.581c2.528 5.367 9.396 6.315 9.396 6.315l-24.92 1.265h86.735l-19.517-1.897s20.24-10.102 14.818-14.204c-5.421-4.103-17.346 4.735-17.346 4.735s20.598-22.733 16.623-31.26c-3.975-8.528-21.687 15.475-21.687 15.475s14.46-30.628 11.549-35.995c-2.912-5.367-12.63 18.63-12.63 18.63Z"
    fill="#00E984" />
  <path opacity=".4"
    d="M214.018 136.754s-9.039-21.79-14.096-20.842c-5.057.948 8.662 34.73 8.662 34.73s-15.901-29.995-26.744-29.995 3.975 33.156 17.706 44.206c0 0-21.681-23.365-34.33-18.314-12.648 5.051 25.297 28.732 25.297 28.732s-22.045-6.948-19.516-1.581c2.528 5.367 9.396 6.315 9.396 6.315l-24.92 1.265h86.735l-19.517-1.897s20.24-10.102 14.818-14.204c-5.421-4.103-17.346 4.735-17.346 4.735s20.598-22.733 16.623-31.26c-3.975-8.528-21.687 15.475-21.687 15.475s14.46-30.628 11.549-35.995c-2.912-5.367-12.63 18.63-12.63 18.63Z"
    fill="#fff" />
  <path d="M216.911 137.896c-7.956 23.492-7.957 40.116-7.957 40.116s9.397.358 19.159-6.868" stroke="#263238"
    stroke-linecap="round" stroke-linejoin="round" />
  <path d="M212.936 150.551a141.302 141.302 0 0 0-6.51-20.605" stroke="#263238" stroke-linecap="round"
    stroke-linejoin="round" />
  <path d="m189.444 136.814 20.234 29.996s13.736-11.549 18.435-18.07M209.319 174.043s-21.322-10.12-29.995-15.882"
    stroke="#263238" stroke-linecap="round" stroke-linejoin="round" />
  <path
    d="M190.179 12.286h-64.938a4.814 4.814 0 0 0-4.814 4.814v159.356a4.814 4.814 0 0 0 4.814 4.814h64.938a4.814 4.814 0 0 0 4.814-4.814V17.1a4.814 4.814 0 0 0-4.814-4.814Z"
    fill="#fff" stroke="#263238" stroke-linecap="round" stroke-linejoin="round" />
  <path
    d="M192.501 41.868a.992.992 0 0 1-.991-.99V27.596a1 1 0 0 1 .994-.92.997.997 0 0 1 .994.92v13.256a1.005 1.005 0 0 1-.286.717.987.987 0 0 1-.711.298ZM192.501 54.17a.992.992 0 0 1-.991-.99v-7.422a1 1 0 0 1 .994-.919.997.997 0 0 1 .994.92v7.42a.997.997 0 0 1-.997.991Z"
    fill="#263238" />
  <path
    d="M184.557 12.286h-64.939a4.814 4.814 0 0 0-4.813 4.814v159.356a4.814 4.814 0 0 0 4.813 4.814h64.939a4.814 4.814 0 0 0 4.814-4.814V17.1a4.814 4.814 0 0 0-4.814-4.814Z"
    fill="#263238" stroke="#263238" stroke-linecap="round" stroke-linejoin="round" />
  <path d="M184.405 23.537H119.77v144.938h64.635V23.536Z" fill="#00E984" />
  <path d="M142.49 18.905h17.207" stroke="#fff" stroke-width="3" stroke-linecap="round" stroke-linejoin="round" />
  <path
    d="M149.772 173.605c0 1.185-.742 2.146-1.659 2.146-.918 0-1.654-.961-1.654-2.146s.742-2.152 1.654-2.152c.911 0 1.659.961 1.659 2.152ZM152.088 59.604c6.19 0 11.208-5.85 11.208-13.068 0-7.217-5.018-13.068-11.208-13.068s-11.208 5.85-11.208 13.068c0 7.217 5.018 13.068 11.208 13.068Z"
    fill="#fff" />
  <path
    d="M152.088 46.372c2.349 0 4.254-2.223 4.254-4.966 0-2.742-1.905-4.966-4.254-4.966-2.35 0-4.255 2.224-4.255 4.966 0 2.743 1.905 4.966 4.255 4.966ZM152.088 47.69c-4.255 0-7.738 3.265-7.738 7.295.004.375.038.749.104 1.118a10.04 10.04 0 0 0 7.634 3.512 10.05 10.05 0 0 0 7.634-3.512c.06-.37.093-.744.097-1.118 0-4.03-3.465-7.294-7.731-7.294Z"
    fill="#263238" stroke="#263238" stroke-linecap="round" stroke-linejoin="round" />
  <path
    d="M165.715 103.458h-27.254a2.725 2.725 0 0 1-2.614-2.827V83.807c0-9.695 7.294-17.584 16.241-17.584s16.234 7.902 16.234 17.584v16.812a2.705 2.705 0 0 1-.715 1.96 2.718 2.718 0 0 1-1.892.879Zm-24.647-5.653h22.033v-13.98c0-6.576-4.941-11.931-11.013-11.931s-11.02 5.355-11.02 11.931v13.98Z"
    fill="#263238" />
  <path d="M171.009 91.976h-37.843v35.8h37.843v-35.8Z" fill="#fff" />
  <path
    d="m157.6 116.623-2.808-6.753a4.982 4.982 0 0 0 1.976-4.024c0-2.692-2.012-4.862-4.498-4.862s-4.492 2.176-4.492 4.862a4.972 4.972 0 0 0 1.97 4.024l-2.802 6.753H157.6Z"
    fill="#263238" stroke="#263238" stroke-linecap="round" stroke-linejoin="round" />
  <path
    d="M140.557 159.948a.348.348 0 0 0 .201.066.315.315 0 0 0 .261-.139l43.386-59.013v-1.118l-43.896 59.742a.324.324 0 0 0-.034.363.356.356 0 0 0 .082.099ZM175.677 44.798a.32.32 0 0 0-.06.246.329.329 0 0 0 .133.216.334.334 0 0 0 .462-.073l8.193-11.142v-1.093l-8.728 11.846ZM119.77 121.972l53.561-72.834a.332.332 0 0 0-.319-.522.328.328 0 0 0-.216.133l-53.001 72.104-.025 1.119ZM135.525 167.132a.345.345 0 0 0 .267-.134l3.039-4.109a.315.315 0 0 0 .055-.117.35.35 0 0 0 .006-.129.335.335 0 0 0-.134-.216.334.334 0 0 0-.462.073l-3.039 4.103a.337.337 0 0 0-.063.245.338.338 0 0 0 .13.217.31.31 0 0 0 .201.067ZM184.405 112.678l-35.618 48.449a.33.33 0 0 0-.028.344.33.33 0 0 0 .296.178.325.325 0 0 0 .15-.033.332.332 0 0 0 .117-.1l35.083-47.726v-1.112Z"
    fill="#fff" />
  <path
    d="M59.311 44.585a9.658 9.658 0 0 0 .851-4.255c0-2.717-3.288-4.29-7.154-4.722-3.865-.432-5.58 1.142-5.008 2.145a9.361 9.361 0 0 0 2.145 2.146s-3.865-2.146-6.442-.426 1.148 1.003.431 2.717c-.717 1.714-4.722 1.003-5.725 5.58-1.003 4.577 1.86 9.16-.718 11.165-2.577 2.006-10.332-.717-12.593 4.292-2.261 5.008.948 7.233-4.486 10.381-5.434 3.148-9.397 6.224-7.823 13.95 1.575 7.725 6.729 10.43 16.892 7.7 10.162-2.729 9.445-8.874 12.764-15.195 3.318-6.321 8.448-5.008 10.022-8.588 1.575-3.58-.431-7.872-.285-11.166.146-3.294 3.434-4.005 4.722-7.901 1.289-3.897 2.407-7.823 2.407-7.823Z"
    fill="#263238" stroke="#263238" stroke-linecap="round" stroke-linejoin="round" />
  <path
    d="M13.975 87.411a3.803 3.803 0 0 0-.395 1.733M53.817 41.746S52.03 39.68 55.47 40.64c4.334 1.216-.754 6.23-2.71 7.24-3.927 2.011-9.118 1.367-12.157 5.026-2.76 3.306.966 6.753-.687 9.372-1.653 2.62-8.272 1.1-10.472 4.255-2.2 3.155 3.993 9.926-2.347 13.645-4.583 2.693-9.603 3.726-12.028 5.86"
    stroke="#fff" stroke-width=".5" stroke-linecap="round" stroke-linejoin="round" />
  <path
    d="M43.539 53.976a4.966 4.966 0 0 0-.329 2.79c.547 2.34 3.72 6.752.827 9.232-2.893 2.48-7.859 2.34-8.68 5.246-.82 2.905.827 10.885-1.926 14.587-2.754 3.702-8.133 3.446-11.026 5.926-2.893 2.48-2.48 3.86-2.48 3.86M44.997 51.253c-.25.354-.481.721-.693 1.1"
    stroke="#fff" stroke-width=".5" stroke-linecap="round" stroke-linejoin="round" />
  <path
    d="m61.165 87.193.7 5.47s3.646 3.647 6.326 5.902c2.68 2.255 9.55 7.026 9.55 7.026l-3.484.991s-11.384-6.747-13.633-7.294c-2.249-.547-3.932-3.793-4.631-4.777-.7-.985 3.343-8.303 5.172-7.318ZM68.118 176.194s3.44 2.906 4.863 3.878c1.422.973 3.082 1.41 2.82 1.939-.261.529-.972 1.058-4.321.608-3.35-.45-4.316-1.586-4.936-1.763-.62-.176-2.115.268-3.258-.437-1.142-.705.669-4.905.669-4.905a3.27 3.27 0 0 0 4.163.68Z"
    fill="#fff" stroke="#263238" stroke-linecap="round" stroke-linejoin="round" />
  <path
    d="M75.79 182.011a.447.447 0 0 0 0-.085 15.659 15.659 0 0 1-5.75-.541c-2.165-.51-2.803-1.659-4.863-1.659a7.066 7.066 0 0 1-2.377-.389 1.25 1.25 0 0 0 .432 1.088c1.142.705 2.644.261 3.258.437.614.177 1.586 1.325 4.935 1.763 3.349.438 4.097-.085 4.364-.614ZM50.109 58.723s.663 4.461-.188 6.26c-.851 1.8-3.514 1.994-5.787 2.377-2.273.383-7.494 2.37-6.929 7.494.566 5.124 7.118 16.222 7.118 19.353 0 3.13-1.994 4.74-4.176 10.813-2.182 6.072-1.896 17.365-1.216 24.671a77.117 77.117 0 0 0 2.845 14.229s-5.47 8.825-7.902 12.618c-2.43 3.793-10.94 20.307-10.94 20.307s0 .565 1.325.948a8.289 8.289 0 0 0 2.85.188s16.314-19.638 19.353-22.957c3.04-3.318 5.884-9.117 6.26-11.767.377-2.65-.09-18.878-.09-18.878s3.41 8.156 6.078 12.332a87.612 87.612 0 0 1 4.449 7.902 47.75 47.75 0 0 0 0 10.332c.662 4.741.103 19.973.766 21.207.662 1.234 3.233.717 3.805.152.57-.565.838-4.255.838-4.255s1.137-11.548 1.824-16.982c.687-5.434 1.823-10.059 1.428-11.293s-2.753-14.424-4.558-20.666c-1.806-6.242-7.294-17.93-8.51-20.963-1.216-3.033-1.902-5.793-1.708-6.74.195-.949 3.89-6.638 4.863-8.158a7.5 7.5 0 0 0 .188-6.734c-1.136-2.468 0-5.793-.188-7.78-.189-1.988-3.13-2.85-4.65-3.605-1.52-.753-2.091-2.467-2.091-3.89a10.94 10.94 0 0 1 .857-3.476s-4.68-3.04-5.914-3.04Z"
    fill="#fff" stroke="#263238" stroke-linecap="round" stroke-linejoin="round" />
  <path d="M61.609 79.017c-.5-1.27-.916-2.571-1.246-3.895M49.288 89.581s1.715.377 5.149-1.337" stroke="#263238"
    stroke-linecap="round" stroke-linejoin="round" />
  <path
    d="M67.28 123.047c-1.72-5.98-6.82-16.903-8.346-20.507-7.293 2.735-14.113.401-17.316-1.106a46.503 46.503 0 0 0-1.471 3.586c-2.182 6.078-1.896 17.365-1.216 24.671a77.117 77.117 0 0 0 2.845 14.229s-5.47 8.825-7.902 12.618c-2.43 3.793-10.94 20.307-10.94 20.307s0 .565 1.325.948c.932.227 1.896.29 2.85.188 0 0 16.314-19.638 19.353-22.957 3.04-3.318 5.884-9.117 6.26-11.767.377-2.65-.09-18.879-.09-18.879s3.41 8.157 6.078 12.333a87.612 87.612 0 0 1 4.449 7.902 47.75 47.75 0 0 0 0 10.332c.662 4.741.103 19.973.766 21.207.662 1.234 3.233.717 3.805.152.57-.565.838-4.255.838-4.255s1.137-11.548 1.824-16.982c.687-5.434 1.823-10.059 1.428-11.293s-2.735-14.466-4.54-20.727Z"
    fill="#263238" stroke="#263238" stroke-linecap="round" stroke-linejoin="round" />
  <path
    d="M104.441 117.024v-1.24h1.04v-9.737H93.142v9.737h1.04v1.24h-1.046v2.261h4.005v-.76h4.34v.76h4.006v-2.261h-1.046Z"
    fill="#00E984" stroke="#263238" stroke-linecap="round" stroke-linejoin="round" />
  <path d="M38.13 103.135h71.575a1.082 1.082 0 0 1 1.082 1.082v2.176a1.082 1.082 0 0 1-1.082 1.082H38.129v-4.346.006Z"
    fill="#00E984" stroke="#263238" stroke-linecap="round" stroke-linejoin="round" />
  <path
    d="M89.501 102.485h-4.358a.602.602 0 0 0-.601.602v4.443c0 .332.269.602.601.602h4.358c.333 0 .602-.27.602-.602v-4.443a.602.602 0 0 0-.602-.602ZM40.368 107.136c1.009-6.158-3.166-11.968-9.324-12.977-6.159-1.008-11.968 3.167-12.977 9.325-1.008 6.158 3.166 11.968 9.325 12.977 6.158 1.008 11.968-3.167 12.976-9.325Z"
    fill="#00E984" stroke="#263238" stroke-linecap="round" stroke-linejoin="round" />
  <path
    d="M31.54 105.281a3.954 3.954 0 0 0 2.243-3.452c0-2.219-2.042-4.018-4.564-4.018-2.523 0-4.565 1.823-4.565 4.018a3.937 3.937 0 0 0 2.243 3.452 3.96 3.96 0 0 0-2.243 3.459c0 2.218 2.042 4.017 4.565 4.017 2.522 0 4.564-1.823 4.564-4.017a3.97 3.97 0 0 0-2.243-3.459ZM75.51 107.572s3.537 1.496 4.631 1.496c1.094 0 2.358-1.1 2.984-2.432.626-1.331.608-1.963.237-1.647l-.784.608s.608-1.331-.079-1.173a1.92 1.92 0 0 0-1.1.942s-.079-1.179-.705-.608a7.25 7.25 0 0 0-1.1 1.258s-.079-1.489-.474-1.1c-.395.389-1.878 2.511-1.878 2.511l-1.733.145Z"
    fill="#fff" stroke="#263238" stroke-linecap="round" stroke-linejoin="round" />
  <path d="M79.594 106.004s-.237 1.885-1.41 2.201l1.41-2.201Z" fill="#fff" />
  <path d="M79.594 106.004s-.237 1.885-1.41 2.201" stroke="#263238" stroke-linecap="round" stroke-linejoin="round" />
  <path d="M81.4 105.378s-.609 2.979-1.569 3.453l1.568-3.453Z" fill="#fff" />
  <path d="M81.4 105.378s-.609 2.979-1.569 3.453" stroke="#263238" stroke-linecap="round" stroke-linejoin="round" />
  <path d="M82.578 105.609a16.948 16.948 0 0 1-1.258 3.143l1.258-3.143Z" fill="#fff" />
  <path d="M82.578 105.609a16.948 16.948 0 0 1-1.258 3.143" stroke="#263238" stroke-linecap="round"
    stroke-linejoin="round" />
  <path
    d="M57.032 68.946a4.316 4.316 0 0 1-1.896-3.768c.109-1.18.408-2.333.887-3.416 0 0-4.65-3.04-5.884-3.04 0 0 .663 4.462-.188 6.261a2.857 2.857 0 0 1-1.295 1.289 36.236 36.236 0 0 0 4.529 8.51c1.707 2.145 2.54-2.377 3.847-5.836Z"
    fill="#fff" stroke="#263238" stroke-linecap="round" stroke-linejoin="round" />
  <path
    d="M42.682 67.974a7.59 7.59 0 0 0-5.47 4.005c-1.873 3.61-10.054 19.997-9.355 20.976 3.975 5.591 18.435 9.615 19.906 11.086a33.484 33.484 0 0 0 4.82 4.164c1.47.936 4.407.534 4.941.267.535-.267.936-1.471 0-1.471a1.561 1.561 0 0 1-1.544-1.215c-.133-.535 1.471.534 2.274.133.802-.401-1.793-1.866-2.596-2.534-.802-.669-1.47-1.599-2.54-1.599h-3.082s-4.923-3.568-7.901-6.224a45.204 45.204 0 0 0-7.543-5.507l9.026-14.849"
    fill="#fff" />
  <path
    d="M42.682 67.974a7.59 7.59 0 0 0-5.47 4.005c-1.873 3.61-10.054 19.997-9.355 20.976 3.975 5.591 18.435 9.615 19.906 11.086a33.484 33.484 0 0 0 4.82 4.164c1.47.936 4.407.535 4.941.267.535-.267.936-1.471 0-1.471a1.561 1.561 0 0 1-1.544-1.215c-.133-.535 1.471.534 2.274.133.802-.401-1.793-1.866-2.596-2.534-.802-.669-1.47-1.599-2.54-1.599h-3.082s-4.923-3.568-7.901-6.224a45.204 45.204 0 0 0-7.543-5.507l9.026-14.849"
    stroke="#263238" stroke-linecap="round" stroke-linejoin="round" />
  <path
    d="M55.652 103.391c-.802-.669-1.47-1.599-2.54-1.599H50.03s-4.923-3.568-7.901-6.224a45.204 45.204 0 0 0-7.543-5.507l3.61-5.944a12.076 12.076 0 0 0-6.115-1.744c-2.43 5.069-4.613 10.077-4.254 10.606 3.975 5.592 18.435 9.616 19.905 11.086a33.36 33.36 0 0 0 4.82 4.164c1.471.936 4.407.535 4.942.267.535-.267.936-1.471 0-1.471a1.561 1.561 0 0 1-1.544-1.215c-.134-.535 1.471.535 2.273.134.803-.402-1.768-1.879-2.57-2.553ZM60.545 52.177c-.474-.949-.474-1.708-.285-3.04.188-1.33-.949-4.558-.949-4.558-1.16 2.006-4.516 3.197-5.999 3.647-1.635.498.754 1.629.499 3.142-.256 1.514-3.52 2.389-3.52 2.389s-.954-1.963-2.279-1.963-2.267 3.039-1.513 4.65a2.151 2.151 0 0 0 2.376 1.245s-.091 2.851 1.708 3.702a33.426 33.426 0 0 0 5.981 2.182c1.137.188 2.273-.377 2.747-2.085.371-1.721.625-3.465.76-5.22a12.206 12.206 0 0 0 2.182-1.824c.456-.657-1.234-1.32-1.708-2.267Z"
    fill="#fff" stroke="#263238" stroke-linecap="round" stroke-linejoin="round" />
  <path
    d="M58.697 52.22c0 .522-.17.941-.376.941-.207 0-.377-.42-.377-.942 0-.523.17-.942.377-.942.206 0 .376.42.376.942Z"
    fill="#263238" />
  <path d="M57.062 50.651s1.01-1.137 1.763-.881M58.825 58.443a2.735 2.735 0 0 1-2.644-.608" stroke="#263238"
    stroke-linecap="round" stroke-linejoin="round" />
  <path
    d="M22.976 176.845s-2.267 4.546-2.182 5.166c.085.62 4.583 3.878 6.686 5.021 2.103 1.142 5.908 1.325 5.64-.262-.267-1.586-3.877-2.644-4.758-5.026a38.59 38.59 0 0 1-1.216-3.763 7.794 7.794 0 0 1-4.17-1.136Z"
    fill="#fff" stroke="#263238" stroke-linecap="round" stroke-linejoin="round" />
  <path
    d="M33.133 186.795a8.88 8.88 0 0 1-4.76-.675c-3.263-1.416-6.424-4.309-7.293-5.13a3.26 3.26 0 0 0-.292 1.039c.091.608 4.583 3.878 6.686 5.021 2.103 1.143 5.878 1.301 5.659-.255Z"
    fill="#fff" stroke="#263238" stroke-linecap="round" stroke-linejoin="round" />
</svg>