<svg width="250" height="187" fill="none" xmlns="http://www.w3.org/2000/svg">
  <path
    d="M250 163.7H0v.125h250v-.125ZM224.95 171.745h-10.84v.125h10.84v-.125ZM172.335 169.155H155.28v.125h17.055v-.125ZM220.56 167.105h-22.265v.125h22.265v-.125ZM86.51 169.625h-5.57v.125h5.57v-.125ZM76.485 169.625H57.29v.125h19.195v-.125ZM47.005 167.515h-13.85v.125h13.85v-.125ZM118.5 141.4H21.955a2.855 2.855 0 0 1-2.85-2.855V2.83A2.855 2.855 0 0 1 21.955 0H118.5a2.857 2.857 0 0 1 2.855 2.855v135.69a2.858 2.858 0 0 1-2.855 2.855ZM21.955.1a2.73 2.73 0 0 0-2.725 2.73v135.715a2.731 2.731 0 0 0 2.725 2.73H118.5a2.732 2.732 0 0 0 2.73-2.73V2.83A2.732 2.732 0 0 0 118.5.1H21.955ZM226.655 141.4h-96.55a2.858 2.858 0 0 1-2.855-2.855V2.83A2.862 2.862 0 0 1 130.105 0h96.55a2.857 2.857 0 0 1 2.845 2.83v135.715a2.852 2.852 0 0 1-2.845 2.855ZM130.105.1a2.735 2.735 0 0 0-2.73 2.73v135.715a2.732 2.732 0 0 0 2.73 2.73h96.55a2.732 2.732 0 0 0 2.73-2.73V2.83a2.732 2.732 0 0 0-2.73-2.73h-96.55Z"
    fill="#EBEBEB" />
  <path d="M57.5 59.815a10.455 10.455 0 0 0 0-20.91h-1.285v20.91H57.5Z" fill="#E0E0E0" />
  <path
    d="M56.205 59.815c5.774 0 10.455-4.68 10.455-10.455 0-5.774-4.68-10.455-10.455-10.455-5.774 0-10.455 4.68-10.455 10.455 0 5.774 4.68 10.455 10.455 10.455Z"
    fill="#F5F5F5" />
  <path
    d="M55.725 50.67a14 14 0 0 1-14-14v-8.355a1.315 1.315 0 0 1 2.63 0v8.36a11.38 11.38 0 0 0 11.365 11.37 1.316 1.316 0 1 1 0 2.625h.005Z"
    fill="#E0E0E0" />
  <path
    d="M31.415 35.675h23.26a2.43 2.43 0 0 0 2.35-3.05L55 25a2.43 2.43 0 0 0-2.345-1.81h-19.22a2.435 2.435 0 0 0-2.35 1.81l-2 7.615a2.425 2.425 0 0 0 2.33 3.06Z"
    fill="#F5F5F5" />
  <path d="M205.14 59.815a10.456 10.456 0 0 0 0-20.91h-1.285v20.91h1.285Z" fill="#E0E0E0" />
  <path
    d="M203.855 59.815c5.774 0 10.455-4.68 10.455-10.455 0-5.774-4.681-10.455-10.455-10.455S193.4 43.585 193.4 49.36c0 5.774 4.681 10.455 10.455 10.455Z"
    fill="#F5F5F5" />
  <path
    d="M203.375 50.67a13.998 13.998 0 0 1-14-14v-8.355A1.317 1.317 0 0 1 190.69 27a1.315 1.315 0 0 1 1.315 1.315v8.36a11.381 11.381 0 0 0 11.365 11.37 1.318 1.318 0 0 1 1.288.79 1.32 1.32 0 0 1-.306 1.48 1.326 1.326 0 0 1-.982.355h.005Z"
    fill="#E0E0E0" />
  <path
    d="M179.065 35.675h23.26a2.432 2.432 0 0 0 2.35-3.05l-2-7.615a2.432 2.432 0 0 0-2.345-1.81h-19.245a2.435 2.435 0 0 0-2.35 1.81l-2 7.615a2.42 2.42 0 0 0 1.262 2.796c.332.165.697.252 1.068.254Z"
    fill="#F5F5F5" />
  <path d="M66.99 130.43h7.605v-29.465H66.99v29.465Z" fill="#E6E6E6" />
  <path d="M46.375 130.425H71.61l3.81-34.485H50.185l-3.81 34.485Z" fill="#F0F0F0" />
  <path d="M43.64 130.425h26.07l3.81-34.485H47.455l-3.815 34.485Z" fill="#F5F5F5" />
  <path d="m67.825 127.71 3.21-29.05h-21.7l-3.21 29.05h21.7Z" fill="#fff" />
  <path
    d="m63.345 120.665.155-1.165c.805-7.29-3.745-13.785-9.655-13.785l-.135 1.185c-.805 7.285 3.745 13.78 9.66 13.78l-.025-.015Z"
    fill="#F5F5F5" />
  <path d="M29.545 163.7h22.42v-33.275h-22.42V163.7Z" fill="#E6E6E6" />
  <path d="M31.795 163.7H29.54v-6.415h4.62l-2.365 6.415Z" fill="#F0F0F0" />
  <path d="M92.38 163.7h22.42v-33.275H92.38V163.7Z" fill="#E6E6E6" />
  <path d="M29.54 159.765h64.805V130.43H29.54v29.335Z" fill="#F0F0F0" />
  <path d="M92.09 163.7h2.255v-6.415h-4.62l2.365 6.415Z" fill="#F0F0F0" />
  <path d="M31.29 144.1h61.305v-11.84H31.29v11.84Z" fill="#E6E6E6" />
  <path d="M57.855 140h8.175a12.909 12.909 0 0 0 9.39-4.04H48.465a12.94 12.94 0 0 0 9.39 4.04Z" fill="#F0F0F0" />
  <path d="M31.29 157.85h61.305v-11.84H31.29v11.84Z" fill="#E6E6E6" />
  <path d="M57.855 153.73h8.175a12.909 12.909 0 0 0 9.39-4.04H48.465a12.94 12.94 0 0 0 9.39 4.04Z" fill="#F0F0F0" />
  <path
    d="M90.24 129.07h.58c0-1.195 0-4.22.06-11.155.105-12.575.305-13.34.305-13.34l-1.38 5.805c-.875 6.425.255 12.885.435 18.69Z"
    fill="#E6E6E6" />
  <path
    d="M89.095 109.5c-2-2.365-6.225-3.055-10.565-3.645-1.705-.23 4.475 3.665 7.5 6.43 2.35 2.15 3.85 2.745 4.5 4.885.33-2.67.275-5.615-1.435-7.67Z"
    fill="#E6E6E6" />
  <path
    d="M91.73 113.74c2-2.365 6.225-3.05 10.565-3.64 1.705-.23-4.5 3.665-7.5 6.43-2.35 2.15-3.85 2.745-4.5 4.885-.33-2.67-.295-5.635 1.435-7.675ZM90.88 104c1.5-2.83 5.23-5.5 9.435-6.5 1.65-.395-3.825 5.22-5.905 8.845-1.615 2.81-3.755 6.12-4.09 8.5-.5-4.69-.93-8 .56-10.845Z"
    fill="#E6E6E6" />
  <path d="M90.7 130.425c-1.77 0-3.235-.885-3.34-2.025l-.295-1.94h7.275l-.3 1.94c-.1 1.14-1.54 2.025-3.34 2.025Z"
    fill="#F0F0F0" />
  <path d="M94.81 127.205h-8.215l-.235-2.165h8.685l-.235 2.165Z" fill="#F0F0F0" />
  <path d="M84.77 85.86h80.105V12.795H84.77V85.86Z" fill="#E6E6E6" />
  <path d="M82.97 85.86h81.12V12.795H82.97V85.86Z" fill="#F5F5F5" />
  <path d="M160.85 82.59V16.07H86.2v66.52h74.65Z" fill="#FAFAFA" />
  <path d="m151.695 82.59-29.38-66.52h-9.98l29.38 66.52h9.98ZM138.885 82.59l-29.38-66.52h-6.87l29.38 66.52h6.87Z"
    fill="#fff" />
  <path d="M113.92 82.585v-66.52h-3.86v66.52h3.86ZM139.58 82.585v-66.52h-3.86v66.52h3.86Z" fill="#E6E6E6" />
  <path d="M113.225 84.665v-71.03h-4.88v71.03h4.88ZM138.885 84.665v-71.03h-4.88v71.03h4.88Z" fill="#F5F5F5" />
  <path
    d="M86.55 82.59V16.07h-.345v66.52h.345ZM81.61 8.585h86.78a.427.427 0 0 1 .42.42.417.417 0 0 1-.42.415H81.61a.42.42 0 0 1-.42-.415.425.425 0 0 1 .42-.42Z"
    fill="#E6E6E6" />
  <path
    d="M164.875 11.34a.564.564 0 0 0 .56-.565v-1.21a.55.55 0 0 0-.162-.4.555.555 0 0 0-.398-.165.566.566 0 0 0-.565.56v1.21a.57.57 0 0 0 .565.57ZM87.9 11.34a.57.57 0 0 0 .565-.565v-1.21a.565.565 0 0 0-.961-.401.56.56 0 0 0-.164.396v1.21a.564.564 0 0 0 .56.57Z"
    fill="#E6E6E6" />
  <path opacity=".6" d="M81.74 66.22h81.065V9H81.74v57.22Z" fill="#E0E0E0" />
  <path
    d="M170.145 102.485h-13.98a2.69 2.69 0 0 0-2.69 2.69v6.47a2.69 2.69 0 0 0 2.69 2.69h13.98a2.69 2.69 0 0 0 2.69-2.69v-6.47a2.69 2.69 0 0 0-2.69-2.69Z"
    fill="#FAFAFA" />
  <path
    d="M171.93 100.295h-17.55c-.5 0-.905.405-.905.905v.73c0 .5.405.905.905.905h17.55c.5 0 .905-.405.905-.905v-.73c0-.5-.405-.905-.905-.905Z"
    fill="#E6E6E6" />
  <path
    d="M153.76 127.5s.255 8.335 9.965 8.335c9.71 0 9.965-8.335 9.965-8.335h-19.93ZM175.9 127.5s.255 8.335 9.965 8.335c9.71 0 9.965-8.335 9.965-8.335H175.9ZM191.02 97.12h-19.2a3.7 3.7 0 0 0-3.7 3.7v9.82a3.7 3.7 0 0 0 3.7 3.7h19.2a3.7 3.7 0 0 0 3.7-3.7v-9.82a3.7 3.7 0 0 0-3.7-3.7Z"
    fill="#F0F0F0" />
  <path
    d="M193.48 94.11h-24.12a1.24 1.24 0 0 0-1.24 1.24v1.01c0 .685.555 1.24 1.24 1.24h24.12a1.24 1.24 0 0 0 1.24-1.24v-1.01a1.24 1.24 0 0 0-1.24-1.24Z"
    fill="#F5F5F5" />
  <path d="M146.445 163.7h2.52v-41.32h-2.52v41.32ZM219.21 114.335h-13.645v8.04h13.645v-8.04Z" fill="#E6E6E6" />
  <path d="M137.72 122.38h67.84v-8.04h-67.84v8.04Z" fill="#F5F5F5" />
  <path d="M219.21 135.81h-13.645v8.04h13.645v-8.04Z" fill="#E6E6E6" />
  <path d="M137.72 143.85h67.84v-8.04h-67.84v8.04Z" fill="#F5F5F5" />
  <path d="M214.285 163.7h2.52v-41.32h-2.52v41.32Z" fill="#E6E6E6" />
  <path
    d="M203.045 163.7h2.52v-41.32h-2.52v41.32ZM137.72 163.7h2.52v-41.32h-2.52v41.32ZM125 186.28c53.541 0 96.945-2.534 96.945-5.66 0-3.126-43.404-5.66-96.945-5.66-53.541 0-96.945 2.534-96.945 5.66 0 3.126 43.404 5.66 96.945 5.66Z"
    fill="#F5F5F5" />
  <path
    d="M130.205 155.25H66.42a4.065 4.065 0 0 1-4-3.82L56.7 40.655a3.585 3.585 0 0 1 3.62-3.815h63.785a4.057 4.057 0 0 1 4 3.815l5.71 110.775a3.588 3.588 0 0 1-3.61 3.82Z"
    fill="#FF7500" />
  <path opacity=".8"
    d="M130.205 155.25H66.42a4.065 4.065 0 0 1-4-3.82L56.7 40.655a3.585 3.585 0 0 1 3.62-3.815h63.785a4.057 4.057 0 0 1 4 3.815l5.71 110.775a3.588 3.588 0 0 1-3.61 3.82Z"
    fill="#fff" />
  <path
    d="M117.81 33.23h-7.055v.5h7.055v-.5ZM108.31 33.23h-2.585v.5h2.585v-.5ZM132.95 148.22h-61a3.884 3.884 0 0 1-3.84-3.645l-5.46-105.95a3.43 3.43 0 0 1 3.465-3.65h61a3.883 3.883 0 0 1 3.835 3.65l5.46 105.95a3.428 3.428 0 0 1-3.46 3.645Z"
    fill="#FF7500" />
  <path
    d="M132.95 145.785h-61a1.46 1.46 0 0 1-1.405-1.34L65.08 38.5a1 1 0 0 1 1.03-1.085h61a1.459 1.459 0 0 1 1.4 1.34L134 144.7a1.01 1.01 0 0 1-.269.772 1 1 0 0 1-.756.313h-.025ZM66.11 37.54a.895.895 0 0 0-.67.27.919.919 0 0 0-.235.685l5.46 105.945a1.331 1.331 0 0 0 1.28 1.22h61a.879.879 0 0 0 .665-.27.868.868 0 0 0 .235-.685L128.39 38.76a1.331 1.331 0 0 0-1.275-1.22H66.11Z"
    fill="#fff" />
  <path opacity=".3"
    d="M111.613 76.028c6.938-7.12 6.487-18.813-1.009-26.117-7.495-7.304-19.196-7.454-26.134-.334-6.938 7.12-6.486 18.812 1.01 26.117 7.495 7.304 19.195 7.454 26.133.334Z"
    fill="#fff" />
  <path
    d="M113 62.805a14.352 14.352 0 0 1-1.435 7.12A14.037 14.037 0 0 1 98.83 77.75a15.876 15.876 0 0 1-13.54-7.825 15.391 15.391 0 0 1-2.17-7.12 14.045 14.045 0 0 1 14.17-14.94A15.904 15.904 0 0 1 113 62.805Z"
    fill="#fff" />
  <path
    d="M111.55 69.925a14.037 14.037 0 0 1-12.735 7.825 15.874 15.874 0 0 1-13.54-7.825 22.58 22.58 0 0 1 12.93-4 24.569 24.569 0 0 1 13.345 4ZM102.674 62.458c2.499-2.565 2.336-6.779-.366-9.412-2.701-2.632-6.918-2.687-9.417-.122-2.5 2.565-2.336 6.779.365 9.411 2.702 2.633 6.918 2.688 9.418.123Z"
    fill="#FF7500" />
  <path
    d="M124.205 107H76.44a1.642 1.642 0 0 1-1.625-1.545l-.36-7a1.45 1.45 0 0 1 1.465-1.54h47.765a1.646 1.646 0 0 1 1.625 1.54l.36 7a1.45 1.45 0 0 1-1.465 1.545Z"
    fill="#fff" />
  <path opacity=".3"
    d="M109.58 93.05H89.63A1.645 1.645 0 0 1 88 91.5l-.075-1.5a1.45 1.45 0 0 1 1.465-1.545h19.945A1.647 1.647 0 0 1 110.96 90l.08 1.5a1.462 1.462 0 0 1-1.46 1.55ZM117 140.655H87.115a2.807 2.807 0 0 1-2.765-2.63l-.175-3.45a2.502 2.502 0 0 1 1.512-2.428c.312-.134.648-.202.988-.202h29.875a2.81 2.81 0 0 1 1.899.772 2.81 2.81 0 0 1 .866 1.858l.175 3.45a2.492 2.492 0 0 1-.681 1.849 2.494 2.494 0 0 1-1.809.781Z"
    fill="#000" />
  <path
    d="M125.08 123.93H77.31a1.65 1.65 0 0 1-1.625-1.545l-.36-7a1.458 1.458 0 0 1 .883-1.429c.184-.078.382-.118.582-.116h47.765a1.645 1.645 0 0 1 1.625 1.545l.365 7a1.46 1.46 0 0 1-1.465 1.545Z"
    fill="#fff" />
  <path
    d="M82.5 101.955a1.607 1.607 0 0 1-.98 1.583c-.204.086-.424.13-.645.127a1.819 1.819 0 0 1-1.795-1.71 1.604 1.604 0 0 1 1.62-1.71 1.824 1.824 0 0 1 1.8 1.71ZM87.765 101.955a1.604 1.604 0 0 1-1.62 1.71 1.812 1.812 0 0 1-1.795-1.71 1.604 1.604 0 0 1 1.62-1.71 1.811 1.811 0 0 1 1.795 1.71ZM93 101.955a1.604 1.604 0 0 1-1.62 1.71 1.824 1.824 0 0 1-1.8-1.71 1.607 1.607 0 0 1 .98-1.583c.204-.086.424-.129.645-.127a1.823 1.823 0 0 1 1.795 1.71ZM98.275 101.955a1.608 1.608 0 0 1-1.62 1.71 1.824 1.824 0 0 1-1.8-1.71 1.611 1.611 0 0 1 1.62-1.71 1.824 1.824 0 0 1 1.8 1.71ZM83.385 118.875a1.604 1.604 0 0 1-1.62 1.71 1.824 1.824 0 0 1-1.8-1.71 1.608 1.608 0 0 1 1.625-1.71 1.823 1.823 0 0 1 1.795 1.71ZM88.64 118.875a1.606 1.606 0 0 1-.438 1.207 1.61 1.61 0 0 1-1.182.503 1.824 1.824 0 0 1-1.8-1.71 1.604 1.604 0 0 1 1.62-1.71 1.824 1.824 0 0 1 1.8 1.71ZM93.895 118.875a1.607 1.607 0 0 1-.98 1.583c-.204.086-.424.13-.645.127a1.811 1.811 0 0 1-1.795-1.71 1.604 1.604 0 0 1 1.62-1.71 1.824 1.824 0 0 1 1.8 1.71ZM99.145 118.875a1.604 1.604 0 0 1-1.62 1.71 1.824 1.824 0 0 1-1.8-1.71 1.607 1.607 0 0 1 .98-1.583c.204-.086.424-.129.645-.127a1.811 1.811 0 0 1 1.795 1.71ZM104.4 118.875a1.614 1.614 0 0 1-.436 1.209 1.603 1.603 0 0 1-1.184.501 1.826 1.826 0 0 1-1.8-1.71 1.612 1.612 0 0 1 .977-1.582c.203-.086.422-.13.643-.128a1.826 1.826 0 0 1 1.8 1.71ZM109.655 118.875a1.598 1.598 0 0 1-.44 1.209 1.607 1.607 0 0 1-1.185.501 1.82 1.82 0 0 1-1.795-1.71 1.597 1.597 0 0 1 .436-1.209 1.607 1.607 0 0 1 1.184-.501 1.826 1.826 0 0 1 1.8 1.71Z"
    fill="#263238" />
  <path
    d="M166.5 60.81c.125.19.19.29.27.425l.225.37c.145.25.275.5.4.745.25.5.5 1 .7 1.5.419.993.78 2.01 1.08 3.045a31.911 31.911 0 0 1 1.19 6.27l.035.395c.004.08.004.16 0 .24v.265a6.46 6.46 0 0 1-.06 1.04 8.6 8.6 0 0 1-.5 1.865 12.893 12.893 0 0 1-1.73 3 21.43 21.43 0 0 1-4.655 4.405l-1.38-1.615a28.652 28.652 0 0 0 3.32-4.595c.428-.743.764-1.536 1-2.36.095-.35.151-.708.165-1.07.015-.155.015-.31 0-.465v-.105a.655.655 0 0 0 0-.14l-.06-.35a39.688 39.688 0 0 0-1.36-5.5c-.29-.895-.645-1.76-1-2.605-.175-.425-.375-.84-.575-1.24l-.31-.59-.155-.275-.13-.22 3.53-2.435Z"
    fill="#803E3C" />
  <path
    d="m161.85 84.385 1.81 3.825 1.435-3.235s-1.275-2.8-3-2.54l-.245 1.95ZM164.955 88.4l1.44-2.36-1.3-1.065-1.435 3.235 1.295.19Z"
    fill="#7F3E3B" />
  <path
    d="M156.815 176.61c.374-.009.747-.06 1.11-.15a.115.115 0 0 0 .048-.03.106.106 0 0 0 .027-.05.102.102 0 0 0-.045-.1c-.145-.095-1.415-.915-1.905-.695a.339.339 0 0 0-.195.28.563.563 0 0 0 .165.5c.227.175.509.262.795.245Zm.825-.295c-.725.15-1.275.125-1.5-.07a.383.383 0 0 1-.105-.355c0-.085.05-.11.085-.125.27-.12 1.005.235 1.52.55Z"
    fill="#FF7500" />
  <path
    d="M157.9 176.46h.05a.112.112 0 0 0 .05-.09c0-.05 0-1.255-.46-1.66a.515.515 0 0 0-.42-.13.347.347 0 0 0-.335.275c-.095.475.665 1.375 1.065 1.605h.05Zm-.715-1.695a.324.324 0 0 1 .119.02.318.318 0 0 1 .101.065c.264.389.4.85.39 1.32-.4-.32-.875-1-.815-1.285 0-.045.035-.105.16-.12h.045ZM152.095 174.57a.106.106 0 0 0 .015-.106.104.104 0 0 0-.085-.064c-.205 0-2-.085-2.41.355v.03a.316.316 0 0 0-.045.31.557.557 0 0 0 .365.365c.58.18 1.605-.475 2.165-.88l-.005-.01Zm-2.33.315c.225-.24 1.215-.305 1.955-.295-.775.53-1.42.78-1.745.68a.355.355 0 0 1-.24-.24.136.136 0 0 1 0-.125l.03-.02Z"
    fill="#FF7500" />
  <path
    d="M152.095 174.57a.11.11 0 0 0 .011-.05.11.11 0 0 0-.011-.05c-.025-.04-.585-1-1.245-1.2a.72.72 0 0 0-.57.07c-.24.14-.255.305-.225.41.13.465 1.405.875 1.955.87a.103.103 0 0 0 .085-.05Zm-1.795-1a.41.41 0 0 1 .095-.07.497.497 0 0 1 .42-.055c.435.115.84.675 1.025.95-.595-.065-1.5-.43-1.575-.71a.12.12 0 0 1 0-.065.111.111 0 0 1 .035-.055v.005Z"
    fill="#FF7500" />
  <path
    d="M157.6 46.165c-.5 2.5-1.58 7.905.155 9.565 0 0-.68 2.5-5.295 2.5-5.08 0-2.425-2.5-2.425-2.5 2.77-.66 2.7-2.72 2.215-4.65l5.35-4.915Z"
    fill="#7F3E3B" />
  <path
    d="M149.14 40.305a.27.27 0 0 0 .085 0 .19.19 0 0 0 .062-.048.185.185 0 0 0 .039-.068.2.2 0 0 0-.011-.154 1.961 1.961 0 0 0-1.44-1.1.206.206 0 0 0-.22.175.202.202 0 0 0 .042.146.202.202 0 0 0 .133.074 1.567 1.567 0 0 1 1.13.885.2.2 0 0 0 .18.09Z"
    fill="#263238" />
  <path d="M147.625 42.5a9.154 9.154 0 0 1-1.46 2 1.46 1.46 0 0 0 1.165.37l.295-2.37Z" fill="#630F0F" />
  <path
    d="M148 41.935c-.04.335-.255.585-.47.56-.215-.025-.365-.32-.325-.655.04-.335.255-.585.5-.56.245.025.33.32.295.655Z"
    fill="#263238" />
  <path d="M147.77 41.31 147 41s.325.66.77.31Z" fill="#263238" />
  <path d="m156.51 173.62-4.08.95-2.48-9.38 4.08-.95 2.48 9.38ZM162.77 176.36h-4.185l.325-9.695h4.19l-.33 9.695Z"
    fill="#7F3E3B" />
  <path
    d="M158.25 175.875h4.705a.328.328 0 0 1 .222.082.332.332 0 0 1 .113.208l.535 3.72a.66.66 0 0 1-.168.523.664.664 0 0 1-.502.222c-1.64-.025-2.43-.125-4.5-.125-1.275 0-3.135.135-4.89.135s-1.855-1.74-1.12-1.895c3.28-.71 3.8-1.68 4.905-2.61.195-.167.443-.259.7-.26Z"
    fill="#263238" />
  <path
    d="m152.07 173.945 4.275-1.965a.324.324 0 0 1 .233-.019.327.327 0 0 1 .187.139l2.045 3.16a.677.677 0 0 1-.076.788.658.658 0 0 1-.224.167c-1.5.66-2.26.905-4.14 1.77-1.155.53-3.5 1.75-5.09 2.5-1.59.75-2.41-.805-1.81-1.255 2.685-2 3.455-3.435 4.07-4.74.104-.24.293-.434.53-.545Z"
    fill="#263238" />
  <path opacity=".2"
    d="m149.95 165.19 1.33 5.03 4.03-1.145-1.275-4.835-4.085.95ZM163.1 166.665h-4.19l-.165 5h4.19l.165-5Z"
    fill="#000" />
  <path d="M165 56.68c1.74.385 3.6 6.64 3.6 6.64l-4.92 5.235s-4.085-5.88-3.25-8.04c.845-2.255 2.495-4.285 4.57-3.835Z"
    fill="#263238" />
  <path opacity=".4"
    d="M162.22 60.665c-.88-.805-1.475-.565-1.88.075-.4 1.86 1.97 5.755 2.925 7.23.44-1.76.945-5.47-1.045-7.305Z"
    fill="#000" />
  <path
    d="M142.955 56.805s-2 .7 2 25.275h17c-.285-6.92-.295-11.19 3-25.4a50.14 50.14 0 0 0-7.225-.95 53.675 53.675 0 0 0-7.72 0c-3.295.305-7.055 1.075-7.055 1.075Z"
    fill="#263238" />
  <path opacity=".4"
    d="M142.8 66.235c.11 1.195.255 2.54.445 4.06 1.395-1.255 2.535-4.825 2.115-6.905a12.294 12.294 0 0 0-2.56 2.845Z"
    fill="#000" />
  <path
    d="M144.62 62.5a73.867 73.867 0 0 1-3.095 6.775 41.557 41.557 0 0 1-4 6.5l-.32.395-.16.195c-.055.065-.1.125-.185.215a6.22 6.22 0 0 1-1 .88 8.15 8.15 0 0 1-2.09 1.04 15.268 15.268 0 0 1-4 .71 29.68 29.68 0 0 1-7.58-.675l.275-2.1c1.15 0 2.355 0 3.5-.095a28.24 28.24 0 0 0 3.43-.38 13.5 13.5 0 0 0 3.07-.86c.398-.17.77-.396 1.105-.67a2.3 2.3 0 0 0 .345-.36l.1-.135.115-.165.235-.33a49.577 49.577 0 0 0 3.345-6.055c1-2.125 2-4.33 2.915-6.5l3.995 1.615Z"
    fill="#803E3C" />
  <path
    d="M142.955 56.805c-2.085.5-4.645 6.22-4.645 6.22l4.32 6.35s5.755-7.245 5.07-9.455c-.7-2.305-2.2-3.735-4.745-3.115Z"
    fill="#263238" />
  <path d="m123.665 76.755-3.605-1.665-.36 3.585s3 .885 4.5 0l-.535-1.92Z" fill="#7F3E3B" />
  <path
    d="m117.905 74.73-.345 2.73 2.14 1.215.36-3.585-2.155-.36ZM159.41 42.18c-.765 4.085-1 5.835-3.34 7.69-3.5 2.79-8.375.96-8.845-3.27-.43-3.81.89-9.85 5.125-11a5.665 5.665 0 0 1 7.06 6.58Z"
    fill="#7F3E3B" />
  <path
    d="M150.435 43.04c-.235 2.085-.325 7.5 4.255 7.67 5.605.205 7.285-4.585 6.785-6.5 2.92-2.375 3.34-6.46.06-9.585-3.28-3.125-10.5-1.38-12.5 1.665-2.535 3.775 1.4 6.75 1.4 6.75Z"
    fill="#263238" />
  <path
    d="M156.05 35.84c-.27-2.2-.06-3.715 2-3.715s4.87.745 5.9 2.85c1.03 2.105 1.115 5.4-1.76 5.065-2.875-.335-5.815-1.57-6.14-4.2Z"
    fill="#FF7500" />
  <path
    d="M159.24 35.31c-.5-2.62 1.845-10 7.54-10.5 2.64-.225 3.86 2.615 2.5 3.085 2.5-.03 4.1 3.275 1.77 3.77 1.84 1.18 1.385 3.6-1.24 4.79-1.955.9-9.895 2.485-10.57-1.145Z"
    fill="#263238" />
  <path
    d="M165.325 38.125c-1.835 0-3.75-.27-4.94-1.065a2.44 2.44 0 0 1-1.175-1.9.134.134 0 0 1 .031-.09.128.128 0 0 1 .133-.041.125.125 0 0 1 .044.024c.013.01.023.024.03.039a.133.133 0 0 1 .012.048 2.229 2.229 0 0 0 1.065 1.715c2.265 1.5 7.5 1 9.13.5 1.41-.46 2.365-1.355 2.555-2.385a2.066 2.066 0 0 0-.835-2 .126.126 0 0 1-.028-.04.112.112 0 0 1-.01-.047c0-.017.003-.033.01-.048a.127.127 0 0 1 .203-.04 2.335 2.335 0 0 1 .925 2.265c-.205 1.125-1.22 2.085-2.72 2.575-1.447.365-2.938.53-4.43.49Z"
    fill="#263238" />
  <path
    d="M149.16 42.5a3.071 3.071 0 0 0-.535 2.255c.165 1.05 1.185 1.12 1.925.45.74-.67 1.385-1.88.84-2.75a1.304 1.304 0 0 0-1.128-.6 1.31 1.31 0 0 0-1.102.645Z"
    fill="#7F3E3B" />
  <path
    d="M149.445 82.08s2.43 28.745 4.955 44.945c2.035 13.085 3.645 43.67 3.645 43.67h5.71s2.03-29.67 1-42.61c-2.615-32.75 3.22-35.42-2.785-46l-12.525-.005Z"
    fill="#FF7500" />
  <path opacity=".4"
    d="M156.635 92.945a27.901 27.901 0 0 0-5.395 8.14c.665 6.46 1.455 13.63 2.295 19.91a55.187 55.187 0 0 0 3.1-28.05Z"
    fill="#000" />
  <path
    d="M145.45 81.9s-5.275 31.395-6.105 45.545c2.07 13.085 10.54 40.745 10.54 40.745l5.195-1.885s-2.875-30.16-6-38.415c7.035-23.685 12.205-29.675 10.7-45.81-3.605 0-14.33-.18-14.33-.18Z"
    fill="#FF7500" />
  <path d="m149.19 169.57 7.02-1.905-.4-2.8-7.515 2.035.895 2.67ZM157.26 170.81h7.275l.38-2.55-7.695-.26.04 2.81Z"
    fill="#263238" />
  <path
    d="m162.22 81.08.765 1.525c.06.12-.08.24-.275.24h-17.84c-.15 0-.28-.075-.29-.175l-.155-1.5c0-.105.125-.195.29-.195h17.225a.314.314 0 0 1 .28.105Z"
    fill="#FF7500" />
  <path opacity=".5"
    d="m162.22 81.08.765 1.525c.06.12-.08.24-.275.24h-17.84c-.15 0-.28-.075-.29-.175l-.155-1.5c0-.105.125-.195.29-.195h17.225a.314.314 0 0 1 .28.105Z"
    fill="#000" />
  <path
    d="M159.905 83h.46c.095 0 .165-.05.16-.105l-.22-2c0-.06-.085-.105-.175-.105h-.465c-.09 0-.16.045-.155.105l.215 2c.01.065.09.105.18.105ZM153.715 68.44a.261.261 0 0 1-.245-.185c-1.63-6.03-5-11-6.635-11.75a.57.57 0 0 0-.425-.07.25.25 0 0 1-.344-.119.243.243 0 0 1-.004-.198.256.256 0 0 1 .143-.138 1.003 1.003 0 0 1 .84.07c1.73.82 5.15 5.72 6.86 11.885 1.225 0 3.115-.165 3.575-.205.57-.68 4.76-5.92 3.195-11.655a.245.245 0 0 1 .175-.305.25.25 0 0 1 .305.175c1.745 6.38-3.315 12.135-3.37 12.19a.234.234 0 0 1-.16.085c-.025 0-2.52.22-3.91.22Z"
    fill="#FF7500" />
  <path
    d="M162 71.97c-2.725-5.105-3.84-5.465-4.325-7.105a8.49 8.49 0 0 1 1.55-2.5c-.33-.095-1.04-.235-1.5-.32.05-.225.105-.445.155-.66a4.769 4.769 0 0 0-1.5.07v-.5a6.499 6.499 0 0 0-1.935-.125c.057.237.112.477.165.72-.5.095-1.26.25-1.625.355a7.206 7.206 0 0 1 1.525 2.785c-1.47 2.525-7.18 18.755 2.11 20 9.29 1.245 8.1-7.61 5.38-12.72Z"
    fill="#FF7500" />
  <path opacity=".4"
    d="M162 71.97c-2.725-5.105-3.84-5.465-4.325-7.105a8.49 8.49 0 0 1 1.55-2.5c-.33-.095-1.04-.235-1.5-.32.05-.225.105-.445.155-.66a4.769 4.769 0 0 0-1.5.07v-.5a6.499 6.499 0 0 0-1.935-.125c.057.237.112.477.165.72-.5.095-1.26.25-1.625.355a7.206 7.206 0 0 1 1.525 2.785c-1.47 2.525-7.18 18.755 2.11 20 9.29 1.245 8.1-7.61 5.38-12.72Z"
    fill="#fff" />
  <path
    d="M154.13 64.205a3.139 3.139 0 0 0-.075.785c0 .185.5.31 1.055.365.555.055 2.885.145 2.81-.115-.075-.26.115-.615.125-.835.01-.22-.925-.23-1.71-.2-.785.03-2.05-.28-2.205 0ZM148.725 83h.46c.09 0 .16-.05.155-.105l-.215-2c0-.06-.085-.105-.18-.105h-.445c-.09 0-.16.045-.155.105l.215 2c-.01.065.07.105.165.105Z"
    fill="#FF7500" />
</svg>